<svg id="Layer_1" data-name="Layer 1" xmlns="http://www.w3.org/2000/svg" viewBox="0 0 485.85 94.51"><defs><style>.cls-1{fill:#ffc221;}.cls-2{fill:#6e7071;}.cls-3{fill:#fcba1e;}.cls-4{fill:#df9026;}.cls-5{fill:#ac722a;}.cls-6{fill:#ffc841;}</style></defs><title>OroCRM_Logo</title><path class="cls-1" d="M175.4,290.1V268.42c0-11,5.48-17.76,25.09-17.76s25.09,6.59,25.09,17.61v21.61c0,11-5.48,17.84-25.09,17.84S175.4,301.13,175.4,290.1ZM216,288.85V269.38c0-8.36-3.33-11.17-15.54-11.17s-15.62,3-15.62,11.32V289c0,8.36,3.33,11.17,15.62,11.17S216,297.21,216,288.85Z" transform="translate(-62.72 -231.25)"/><path class="cls-1" d="M233,299.35l4.14-.15v-40L233,259v-7.18h26.57c13.76,0,19,3.33,19,11v6.51c0,6.07-3.77,10.43-11.77,11,6.73.59,11.4,1.7,12,8l1,10.88,4.44.22v7.1h-12.8a3.39,3.39,0,0,1-1-2.59l-1-13c-.44-5.7-4.44-7.18-14.06-7.18h-8.66v15.39l4.07.15v7.18H233Zm24.72-22.87c9,0,11.54-1.92,11.54-6.66v-4.37c0-4.44-1.7-6.29-11.54-6.29h-11v17.32Z" transform="translate(-62.72 -231.25)"/><path class="cls-1" d="M289.66,290.1V268.42c0-11,5.48-17.76,25.09-17.76s25.09,6.59,25.09,17.61v21.61c0,11-5.48,17.84-25.09,17.84S289.66,301.13,289.66,290.1Zm40.63-1.26V269.38c0-8.36-3.33-11.17-15.54-11.17s-15.61,3-15.61,11.32V289c0,8.36,3.33,11.17,15.61,11.17S330.29,297.21,330.29,288.85Z" transform="translate(-62.72 -231.25)"/><path class="cls-2" d="M348,290.47V268.2c0-10.14,5.55-17.39,22.2-17.39,13,0,17.17,4.66,18.13,9.4l.37-8h5V269.9h-6.14V268c0-7-3.48-11.91-16.5-11.91s-16.43,4.59-16.43,12.8v20.8c0,8.36,3.55,12.73,16.43,12.73s16.5-4.59,16.5-12.21v-2.37h6.07v2.29c0,9.55-4.66,17.54-22.57,17.54S348,300.76,348,290.47Z" transform="translate(-62.72 -231.25)"/><path class="cls-2" d="M401.18,301.5l4.59-.07V257.17l-4.59-.15v-5h25c13.69,0,18.58,3,18.58,10.73v6.36c0,6.44-3.85,10.51-13.25,10.88,7.7.52,12.88,1.78,13.47,8.73l1.18,12.73,4.88.15v5H440.4c-.44-.37-.67-.74-.81-1.85l-1.18-14.13c-.52-6.51-5.11-8.21-16.36-8.21h-9.62v19.09l4.51.07v5H401.18Zm23.68-24.27c10.43,0,13.39-2.29,13.39-7.84V264.5c0-5.4-2.44-7.33-13.39-7.33H412.43v20.06Z" transform="translate(-62.72 -231.25)"/><path class="cls-2" d="M456.08,301.5l4.59-.07V257.17l-4.59-.15v-5H468a2.33,2.33,0,0,1,2.44,1.41l17.69,38.41h.07l17.39-38.41a2.44,2.44,0,0,1,2.52-1.41h11.32v5l-4.51.15v44.25l4.51.07v5H503.82v-5l4.51-.07V259.1h-.07l-18.13,40.85h-5L466.74,259.1h-.07v42.33l4.51.07v5h-15.1Z" transform="translate(-62.72 -231.25)"/><path class="cls-3" d="M83.37,289.91l38.56-37.81a10.5,10.5,0,0,1,14.85.15l-17.5-17.85a10.5,10.5,0,0,0-14.85-.15L65.87,272.06a10.5,10.5,0,0,0-.15,14.85l17.5,17.85A10.5,10.5,0,0,1,83.37,289.91Z" transform="translate(-62.72 -231.25)"/><path class="cls-4" d="M98.07,304.9l38.56-37.81a10.5,10.5,0,0,0,.15-14.85l17.5,17.85a10.5,10.5,0,0,1-.15,14.85l-38.56,37.81a10.5,10.5,0,0,1-14.85-.15l-17.5-17.85A10.5,10.5,0,0,0,98.07,304.9Z" transform="translate(-62.72 -231.25)"/><path class="cls-5" d="M154.28,270.1l-17.5-17.85a10.5,10.5,0,0,1-.15,14.85l-1.07,1,10.15,10.35a10.5,10.5,0,0,1-.15,14.85l8.57-8.4A10.5,10.5,0,0,0,154.28,270.1Z" transform="translate(-62.72 -231.25)"/><path class="cls-6" d="M110.7,242.8l10.15,10.35,1.07-1.05a10.5,10.5,0,0,1,14.85.15l-17.5-17.85a10.5,10.5,0,0,0-14.85-.15l-1.07,1Z" transform="translate(-62.72 -231.25)"/><path class="cls-2" d="M531.7,263h-1.87v-9.82h-3.36v-1.6h8.59v1.6H531.7Z" transform="translate(-62.72 -231.25)"/><path class="cls-2" d="M541.75,263l-3.31-9.54h-.06q.13,2.13.13,4V263h-1.7V251.57h2.63l3.17,9.09h0l3.27-9.09h2.64V263h-1.8v-5.65q0-.85,0-2.22t.07-1.66h-.06L543.4,263Z" transform="translate(-62.72 -231.25)"/></svg>